<svg width="75" height="85" viewBox="0 0 75 85" fill="none" xmlns="http://www.w3.org/2000/svg">
<path d="M37.4838 84.4752C37.4838 84.4752 72.1688 68.5374 72.1688 44.6252V12.757L37.4838 4.78629L2.80273 12.757V44.6362C2.80273 68.5374 37.4838 84.4752 37.4838 84.4752Z" fill="#A9EA9C"/>
<path d="M72.1688 29.4842V42.8079C72.1688 66.7201 37.4838 82.6578 37.4838 82.6578C37.4838 82.6578 2.80273 66.7274 2.80273 42.8115V29.4842C2.80273 53.3963 37.4838 69.3341 37.4838 69.3341C37.4838 69.3341 72.1688 53.3963 72.1688 29.4842Z" fill="#91CD86"/>
<path d="M37.4838 84.8607L36.4132 84.3504C30.0159 81.2439 24.0308 77.4678 18.5774 73.0974C6.69747 63.5516 0.417969 52.9778 0.417969 42.5472V8.94973L37.4998 0.428284L74.5816 8.94973V42.5472C74.5816 52.9778 68.3021 63.5406 56.4222 73.0974C50.9575 77.4699 44.9603 81.246 38.5504 84.3504L37.4838 84.8607ZM5.1995 12.3899V42.5472C5.1995 62.5383 31.7675 77.0185 37.4878 79.9006C43.2001 77.0148 69.7761 62.5089 69.7761 42.5472V12.3899L37.4878 4.96987L5.1995 12.3899Z" fill="#426572"/>
<path d="M34.5437 44.8751C33.1351 46.3983 30.7273 46.3983 29.3188 44.8751L25.3273 40.5586C24.5474 39.7151 23.2141 39.7151 22.4342 40.5586C21.736 41.3137 21.736 42.4788 22.4342 43.2339L29.3188 50.6791C30.7273 52.2024 33.1351 52.2024 34.5437 50.6791L53.6956 29.9675C54.3939 29.2124 54.3939 28.0473 53.6956 27.2922C52.9157 26.4487 51.5824 26.4487 50.8025 27.2922L34.5437 44.8751Z" fill="white"/>
</svg>
