<svg width="51" height="50" viewBox="0 0 51 50" fill="none" xmlns="http://www.w3.org/2000/svg">
<path d="M8.97737 24.9996C8.97737 27.2145 7.1755 29.0161 4.96071 29.0161C2.74611 29.0161 0.944336 27.2145 0.944336 24.9996C0.944336 22.7854 2.74621 20.9836 4.96071 20.9836C7.1756 20.9836 8.97737 22.7853 8.97737 24.9996Z" fill="#FFF1BA"/>
<path opacity="0.1" d="M19.4701 6.82503C19.4701 8.25642 18.6997 9.59193 17.4606 10.3071C16.5313 10.844 15.4491 10.9852 14.4132 10.7075C13.3766 10.4306 12.5108 9.76556 11.9745 8.83692C11.6219 8.22501 11.4355 7.53243 11.4355 6.83264C11.4355 5.39919 12.2049 4.06573 13.4442 3.35072C14.3733 2.81363 15.4559 2.6715 16.4919 2.94814C17.5281 3.22596 18.3944 3.89103 18.9305 4.81987C19.283 5.4308 19.4701 6.12299 19.4701 6.82503Z" fill="#FFF1BA"/>
<path opacity="0.2" d="M29.9612 4.01793C29.9612 6.23155 28.1589 8.03157 25.9445 8.03157C23.7299 8.03157 21.9287 6.23155 21.9287 4.01696C21.9287 1.80334 23.7305 0.000975463 25.9449 0C28.1589 0.000975463 29.9612 1.80324 29.9612 4.01696V4.01793Z" fill="#FFF1BA"/>
<path opacity="0.3" d="M40.4524 6.83265C40.4524 7.53244 40.2663 8.22492 39.9133 8.83693C39.3771 9.76557 38.5111 10.4306 37.475 10.7084C36.4386 10.9852 35.3561 10.844 34.4269 10.3071C33.1881 9.59194 32.418 8.25643 32.418 6.82504C32.418 6.123 32.6047 5.43081 32.957 4.82095C34.0638 2.90241 36.5252 2.2428 38.4436 3.35073C39.6831 4.06574 40.4524 5.40037 40.4524 6.83265Z" fill="#FFF1BA"/>
<path opacity="0.4" d="M48.1333 14.5042C48.1333 15.9369 47.3633 17.2715 46.124 17.9869C44.2064 19.0945 41.745 18.4354 40.6373 16.5166C40.2849 15.9068 40.0986 15.2141 40.0986 14.5139C40.0986 13.0807 40.8682 11.7472 42.1076 11.031C43.037 10.4949 44.1191 10.3504 45.1556 10.6294C46.1916 10.9061 47.0583 11.5723 47.5943 12.5002C47.947 13.1109 48.1333 13.803 48.1333 14.5042Z" fill="#FFF1BA"/>
<path opacity="0.5" d="M50.0548 24.9996C50.054 27.2143 48.2526 29.0159 46.038 29.0159C44.9653 29.0159 43.9562 28.5985 43.1982 27.8396C42.4389 27.0812 42.0215 26.0728 42.0215 24.9992C42.022 22.7846 43.8238 20.9838 46.0381 20.9838C48.2528 20.9838 50.0546 22.7854 50.0548 24.9996Z" fill="#FFF1BA"/>
<path opacity="0.58" d="M48.1335 35.4966C48.1335 36.197 47.9472 36.8899 47.5945 37.5001C46.4865 39.4177 44.0252 40.0775 42.1078 38.9699C40.8682 38.2547 40.0986 36.9201 40.0986 35.488C40.0986 34.7872 40.2849 34.094 40.6379 33.4832C41.7452 31.5658 44.206 30.9068 46.1236 32.0135C47.3635 32.7291 48.1335 34.0636 48.1335 35.4966Z" fill="#FFF1BA"/>
<path opacity="0.65" d="M40.4529 43.1675C40.4529 44.6004 39.6831 45.9354 38.4441 46.6508C36.5256 47.7576 34.0643 47.0978 32.9569 45.1804C32.6048 44.5698 32.418 43.8765 32.418 43.1761C32.418 41.7439 33.1878 40.4088 34.4274 39.6936C36.3456 38.5865 38.8069 39.2463 39.9132 41.1636C40.2664 41.7741 40.4529 42.4672 40.4529 43.1675Z" fill="#FFF1BA"/>
<path opacity="0.72" d="M29.961 45.983C29.961 48.1978 28.1587 49.9998 25.9447 50C23.7297 49.9992 21.9277 48.1978 21.9277 45.9834C21.9277 44.9102 22.3457 43.9014 23.1042 43.143C23.8626 42.3844 24.8714 41.9667 25.9443 41.9667C28.1583 41.9667 29.961 43.7685 29.961 45.983Z" fill="#FFF1BA"/>
<path opacity="0.8" d="M19.4697 43.1766C19.4697 43.8764 19.2834 44.5697 18.9311 45.1801C17.8238 47.0977 15.3627 47.7575 13.4448 46.6502C12.2055 45.9346 11.4355 44.5998 11.4355 43.1675C11.4355 42.4671 11.6217 41.7748 11.9745 41.1636C12.5105 40.2344 13.3767 39.5699 14.4129 39.292C15.4492 39.014 16.5319 39.1568 17.4612 39.6935C18.7001 40.4093 19.4697 41.744 19.4697 43.1766Z" fill="#FFF1BA"/>
<path opacity="0.88" d="M11.7892 35.4874C11.7892 36.9198 11.0198 38.2543 9.78081 38.9697C7.86207 40.0771 5.40117 39.4177 4.29441 37.5C3.94159 36.8892 3.75488 36.1963 3.75488 35.4957C3.75488 34.0629 4.52482 32.729 5.76385 32.0134C6.69288 31.4765 7.77525 31.3338 8.81178 31.6112C9.84802 31.8892 10.7141 32.5541 11.2504 33.4832C11.6031 34.094 11.7892 34.787 11.7892 35.4874Z" fill="#FFF1BA"/>
</svg>
