<svg width="111" height="111" viewBox="0 0 111 111" fill="none" xmlns="http://www.w3.org/2000/svg">
<path d="M41.3151 76.5033C42.8722 78.2364 39.4752 83.8278 37.6978 85.4249C35.9203 87.022 33.217 86.9118 31.6598 85.1787C30.1027 83.4457 30.2813 80.7461 32.0587 79.149C33.8362 77.5519 39.7579 74.7703 41.3151 76.5033Z" fill="#E9EBF8"/>
<path d="M48.4142 78.8851C50.6259 79.6176 50.4495 86.1576 49.6982 88.4261C48.947 90.6945 46.545 91.9396 44.3333 91.2071C42.1216 90.4746 40.9376 88.0418 41.6889 85.7734C42.4402 83.505 46.2025 78.1526 48.4142 78.8851Z" fill="#E9EBF8"/>
<path d="M58.2446 81.0261C60.5743 81.0455 62.4108 87.325 62.3909 89.7145C62.371 92.104 60.4662 94.0253 58.1364 94.0059C55.8066 93.9865 53.9341 92.0337 53.954 89.6442C53.9739 87.2546 55.9148 81.0067 58.2446 81.0261Z" fill="#E9EBF8"/>
<path d="M67.735 79.3836C69.8425 78.3903 74.2214 83.2513 75.2401 85.4129C76.2588 87.5744 75.3762 90.1319 73.2687 91.1252C71.1611 92.1184 68.6268 91.1713 67.6081 89.0097C66.5894 86.8482 65.6275 80.3768 67.735 79.3836Z" fill="#E9EBF8"/>
<path d="M75.5729 71.9038C77.1242 70.1655 83.0553 72.9269 84.8382 74.518C86.6211 76.109 86.8088 78.808 85.2576 80.5464C83.7063 82.2847 81.0034 82.4041 79.2205 80.813C77.4376 79.222 74.0216 73.6421 75.5729 71.9038Z" fill="#E9EBF8" fill-opacity="0.93"/>
<path d="M80.2283 63.4998C81.087 61.3339 87.606 61.8866 89.8274 62.7673C92.0488 63.6479 93.1536 66.1176 92.2949 68.2835C91.4363 70.4493 88.9394 71.4912 86.718 70.6106C84.4966 69.7299 79.3697 65.6657 80.2283 63.4998Z" fill="#E9EBF8" fill-opacity="0.85"/>
<path d="M80.4518 54.2389C80.1942 51.9233 86.2108 49.3536 88.5858 49.0894C90.9607 48.8252 93.0948 50.4881 93.3524 52.8037C93.61 55.1193 91.8936 57.2106 89.5186 57.4748C87.1437 57.739 80.7094 56.5544 80.4518 54.2389Z" fill="#E9EBF8" fill-opacity="0.87"/>
<path d="M78.5508 44.641C77.4317 42.5975 82.0186 37.9323 84.1145 36.7845C86.2104 35.6368 88.8166 36.3629 89.9357 38.4064C91.0547 40.4499 90.2628 43.037 88.1669 44.1847C86.071 45.3325 79.6698 46.6845 78.5508 44.641Z" fill="#E9EBF8" fill-opacity="0.82"/>
<path d="M72.9125 37.6317C71.2041 36.0476 74.0781 30.1702 75.7029 28.418C77.3277 26.6658 80.0297 26.5295 81.7382 28.1136C83.4466 29.6978 83.5144 32.4024 81.8897 34.1547C80.2649 35.9069 74.6209 39.2159 72.9125 37.6317Z" fill="#E9EBF8" fill-opacity="0.76"/>
<path d="M64.955 31.5308C62.8759 30.4792 64.0178 24.0371 65.0964 21.9048C66.1749 19.7725 68.7347 18.8964 70.8137 19.948C72.8927 20.9996 73.7038 23.5807 72.6252 25.713C71.5466 27.8453 67.034 32.5824 64.955 31.5308Z" fill="#E9EBF8" fill-opacity="0.8"/>
<path d="M57.3892 27.3744C55.0645 27.5293 52.7634 21.4048 52.6046 19.0205C52.4457 16.6362 54.2014 14.5778 56.5261 14.4228C58.8508 14.2679 60.8642 16.0752 61.023 18.4595C61.1819 20.8438 59.7139 27.2194 57.3892 27.3744Z" fill="#E9EBF8" fill-opacity="0.66"/>
<path d="M39.9982 33.8685C38.1949 35.3438 32.7667 31.6917 31.2536 29.8422C29.7404 27.9928 29.9756 25.2975 31.7789 23.8222C33.5821 22.3469 36.2706 22.6502 37.7837 24.4997C39.2968 26.3492 41.8014 32.3932 39.9982 33.8685Z" fill="#E9EBF8"/>
<path d="M47.7002 29.3015C45.5091 30.0934 41.6036 24.8445 40.7914 22.5972C39.9791 20.3499 41.0969 17.8861 43.288 17.0941C45.4791 16.3022 47.9138 17.482 48.7261 19.7293C49.5384 21.9766 49.8913 28.5095 47.7002 29.3015Z" fill="url(#paint0_linear_116_416)"/>
<path d="M34.5988 69.1649C35.8441 71.1341 31.5596 76.0784 29.54 77.3557C27.5204 78.6329 24.8737 78.072 23.6284 76.1029C22.3831 74.1338 23.0107 71.5021 25.0303 70.2249C27.05 68.9476 33.3535 67.1958 34.5988 69.1649Z" fill="#E9EBF8"/>
<path d="M29.7339 60.1616C30.1808 62.4482 24.3955 65.5033 22.0503 65.9617C19.7051 66.42 17.4416 64.938 16.9947 62.6514C16.5478 60.3648 18.0867 58.1396 20.4319 57.6812C22.7772 57.2229 29.287 57.875 29.7339 60.1616Z" fill="#E9EBF8"/>
<path d="M29.2408 51.6087C28.5368 53.8297 21.995 53.7374 19.7172 53.0153C17.4393 52.2933 16.1634 49.9075 16.8674 47.6865C17.5714 45.4656 19.9887 44.2505 22.2666 44.9726C24.5445 45.6946 29.9449 49.3878 29.2408 51.6087Z" fill="#E9EBF8"/>
<path d="M33.8894 41.7565C32.7053 43.7631 26.3508 42.2062 24.2928 40.9918C22.2349 39.7773 21.5264 37.1662 22.7105 35.1597C23.8946 33.1531 26.5228 32.511 28.5808 33.7255C30.6388 34.9399 35.0735 39.75 33.8894 41.7565Z" fill="url(#paint1_linear_116_416)"/>
<defs>
<linearGradient id="paint0_linear_116_416" x1="43.8323" y1="16.9561" x2="51.8796" y2="24.7147" gradientUnits="userSpaceOnUse">
<stop stop-color="white"/>
<stop offset="1" stop-color="white" stop-opacity="0.8"/>
</linearGradient>
<linearGradient id="paint1_linear_116_416" x1="23.042" y1="34.7064" x2="34.1878" y2="35.5584" gradientUnits="userSpaceOnUse">
<stop offset="0.975682" stop-color="white" stop-opacity="0.8"/>
</linearGradient>
</defs>
</svg>
