<svg width="108" height="108" viewBox="0 0 108 108" fill="none" xmlns="http://www.w3.org/2000/svg">
<g filter="url(#filter0_d_379_131)">
<path d="M9 52C9 27.6995 28.6995 8 53 8C77.3005 8 97 27.6995 97 52C97 76.3005 77.3005 96 53 96C28.6995 96 9 76.3005 9 52Z" fill="#ED3F19" shape-rendering="crispEdges"/>
<path d="M69.9881 66.5119C70.1507 66.6745 70.2797 66.8675 70.3677 67.0799C70.4557 67.2924 70.501 67.5201 70.501 67.75C70.501 67.9799 70.4557 68.2076 70.3677 68.4201C70.2797 68.6325 70.1507 68.8255 69.9881 68.9881C69.8255 69.1507 69.6325 69.2797 69.4201 69.3677C69.2076 69.4557 68.9799 69.501 68.75 69.501C68.5201 69.501 68.2924 69.4557 68.0799 69.3677C67.8675 69.2797 67.6745 69.1507 67.5119 68.9881L53 54.4741L38.4881 68.9881C38.1598 69.3165 37.7144 69.501 37.25 69.501C36.7856 69.501 36.3402 69.3165 36.0119 68.9881C35.6835 68.6598 35.499 68.2144 35.499 67.75C35.499 67.2856 35.6835 66.8402 36.0119 66.5119L50.5259 52L36.0119 37.4881C35.6835 37.1598 35.499 36.7144 35.499 36.25C35.499 35.7856 35.6835 35.3402 36.0119 35.0119C36.3402 34.6835 36.7856 34.499 37.25 34.499C37.7144 34.499 38.1598 34.6835 38.4881 35.0119L53 49.5259L67.5119 35.0119C67.8402 34.6835 68.2856 34.499 68.75 34.499C69.2144 34.499 69.6598 34.6835 69.9881 35.0119C70.3165 35.3402 70.501 35.7856 70.501 36.25C70.501 36.7144 70.3165 37.1598 69.9881 37.4881L55.4741 52L69.9881 66.5119Z" fill="#FDECE8"/>
</g>
<defs>
<filter id="filter0_d_379_131" x="0.5" y="0.5" width="107" height="107" filterUnits="userSpaceOnUse" color-interpolation-filters="sRGB">
<feFlood flood-opacity="0" result="BackgroundImageFix"/>
<feColorMatrix in="SourceAlpha" type="matrix" values="0 0 0 0 0 0 0 0 0 0 0 0 0 0 0 0 0 0 127 0" result="hardAlpha"/>
<feOffset dx="1" dy="2"/>
<feGaussianBlur stdDeviation="4.75"/>
<feComposite in2="hardAlpha" operator="out"/>
<feColorMatrix type="matrix" values="0 0 0 0 0.961667 0 0 0 0 0.326967 0 0 0 0 0.326967 0 0 0 0.25 0"/>
<feBlend mode="normal" in2="BackgroundImageFix" result="effect1_dropShadow_379_131"/>
<feBlend mode="normal" in="SourceGraphic" in2="effect1_dropShadow_379_131" result="shape"/>
</filter>
</defs>
</svg>
