<svg width="63" height="85" viewBox="0 0 63 85" fill="none" xmlns="http://www.w3.org/2000/svg">
<path d="M16.3433 70.3971C16.0277 70.3959 15.7161 70.3266 15.4302 70.194C15.1444 70.0613 14.8911 69.8685 14.688 69.629C14.485 69.3895 14.337 69.109 14.2545 68.8071C14.1719 68.5052 14.1567 68.189 14.21 67.8807L14.9298 63.7689C14.9504 63.633 14.9386 63.4941 14.8954 63.3635C14.8523 63.2329 14.7789 63.1141 14.6811 63.0166L11.6578 60.0981C11.367 59.8191 11.1611 59.4648 11.0636 59.0755C10.9661 58.6862 10.981 58.2776 11.1065 57.8962C11.232 57.5149 11.4632 57.1762 11.7735 56.9188C12.0839 56.6613 12.461 56.4955 12.8619 56.4402L17.037 55.8436C17.1735 55.8214 17.3027 55.7675 17.4142 55.6863C17.5256 55.6052 17.6161 55.4991 17.6783 55.3766L19.5368 51.628C19.7129 51.2597 19.9909 50.9485 20.3385 50.7306C20.686 50.5128 21.0888 50.3971 21.5 50.3971C21.9112 50.3971 22.314 50.5128 22.6615 50.7306C23.0091 50.9485 23.287 51.2597 23.4632 51.628L25.3217 55.3766C25.3851 55.5007 25.4777 55.6078 25.5915 55.6891C25.7054 55.7703 25.8373 55.8233 25.9761 55.8436L30.1381 56.4791C30.539 56.5344 30.9161 56.7002 31.2265 56.9577C31.5369 57.2151 31.768 57.5538 31.8935 57.9352C32.019 58.3165 32.0339 58.7251 31.9364 59.1144C31.839 59.5037 31.633 59.8581 31.3422 60.137L28.2796 62.9647C28.1815 63.0616 28.1088 63.1808 28.0677 63.3119C28.0267 63.443 28.0185 63.5821 28.044 63.717L28.7508 67.8288C28.8201 68.2235 28.7763 68.6296 28.6243 69.0008C28.4722 69.3721 28.2181 69.6935 27.8908 69.9287C27.5635 70.1639 27.1762 70.3033 26.7729 70.331C26.3696 70.3588 25.9666 70.2738 25.6096 70.0858L21.8796 68.1401C21.7574 68.0731 21.62 68.038 21.4804 68.038C21.3407 68.038 21.2034 68.0731 21.0812 68.1401L17.3511 70.0728C17.0478 70.2627 16.7013 70.3742 16.3433 70.3971ZM21.4869 51.7317C21.3263 51.7265 21.1676 51.7679 21.0304 51.8509C20.8933 51.9339 20.7835 52.0547 20.7147 52.1987L18.8431 55.9473C18.6897 56.2599 18.4617 56.5307 18.1789 56.7364C17.8962 56.9421 17.5671 57.0764 17.2202 57.1277L13.0451 57.7244C12.8877 57.7468 12.7398 57.8125 12.6182 57.914C12.4965 58.0156 12.4061 58.1489 12.357 58.2988C12.3079 58.4487 12.3023 58.6093 12.3406 58.7622C12.379 58.9152 12.4598 59.0544 12.574 59.1642L15.5973 62.0826C15.848 62.3273 16.0349 62.6287 16.142 62.9609C16.2492 63.293 16.2734 63.646 16.2124 63.9894L15.5057 68.1012C15.478 68.2562 15.4946 68.4158 15.5537 68.5619C15.6128 68.708 15.7119 68.8348 15.84 68.9279C15.968 69.021 16.1198 69.0768 16.2781 69.0889C16.4365 69.1009 16.5951 69.0689 16.736 68.9962L20.4791 67.0506C20.7881 66.8903 21.1316 66.8066 21.4804 66.8066C21.8291 66.8066 22.1726 66.8903 22.4816 67.0506L26.2248 68.9962C26.3629 69.083 26.5234 69.1284 26.687 69.1271C26.8506 69.1258 27.0103 69.0778 27.147 68.9888C27.2837 68.8998 27.3917 68.7737 27.4579 68.6255C27.5242 68.4772 27.5459 68.3132 27.5205 68.1531L26.8137 64.0413C26.7562 63.6979 26.7819 63.3458 26.8889 63.0142C26.9958 62.6827 27.1809 62.3811 27.4289 62.1345L30.4522 59.216C30.5693 59.1075 30.6526 58.9679 30.692 58.8138C30.7315 58.6598 30.7255 58.4978 30.6747 58.347C30.6246 58.197 30.5331 58.064 30.4104 57.9631C30.2878 57.8622 30.139 57.7974 29.981 57.7763L25.806 57.1796C25.4591 57.1282 25.13 56.9939 24.8472 56.7883C24.5645 56.5826 24.3365 56.3118 24.183 55.9992L22.2853 52.1987C22.2148 52.0505 22.1009 51.9268 21.9586 51.8435C21.8162 51.7602 21.6519 51.7213 21.4869 51.7317Z" fill="#EAD519"/>
<path d="M51.7271 37.6066C51.4998 37.6058 51.2755 37.5603 51.0696 37.4732C50.8638 37.3861 50.6815 37.2595 50.5353 37.1023C50.3891 36.945 50.2825 36.7608 50.2231 36.5626C50.1637 36.3643 50.1527 36.1567 50.1911 35.9543L50.7094 33.2543C50.7242 33.165 50.7157 33.0739 50.6846 32.9881C50.6535 32.9023 50.6007 32.8243 50.5303 32.7603L48.3535 30.8439C48.1441 30.6607 47.9958 30.4281 47.9257 30.1724C47.8555 29.9168 47.8662 29.6485 47.9566 29.3981C48.0469 29.1477 48.2134 28.9253 48.4368 28.7562C48.6603 28.5872 48.9318 28.4783 49.2205 28.442L52.2265 28.0502C52.3248 28.0356 52.4178 28.0003 52.4981 27.947C52.5783 27.8937 52.6435 27.824 52.6883 27.7436L54.0264 25.2821C54.1532 25.0403 54.3534 24.8359 54.6036 24.6929C54.8538 24.5498 55.1438 24.4738 55.4399 24.4738C55.736 24.4738 56.026 24.5498 56.2762 24.6929C56.5264 24.8359 56.7266 25.0403 56.8534 25.2821L58.1915 27.7436C58.2372 27.825 58.3038 27.8954 58.3858 27.9488C58.4678 28.0021 58.5627 28.0369 58.6627 28.0502L61.6593 28.4676C61.9479 28.5039 62.2195 28.6127 62.4429 28.7818C62.6664 28.9508 62.8328 29.1732 62.9232 29.4236C63.0136 29.674 63.0243 29.9423 62.9541 30.198C62.8839 30.4536 62.7357 30.6863 62.5263 30.8694L60.3212 32.7262C60.2506 32.7898 60.1982 32.8681 60.1686 32.9542C60.1391 33.0403 60.1332 33.1316 60.1516 33.2202L60.6604 35.9202C60.7104 36.1794 60.6788 36.446 60.5693 36.6898C60.4599 36.9335 60.2769 37.1446 60.0413 37.2991C59.8056 37.4535 59.5268 37.545 59.2364 37.5632C58.946 37.5815 58.6558 37.5257 58.3988 37.4022L55.7132 36.1246C55.6252 36.0806 55.5263 36.0575 55.4257 36.0575C55.3252 36.0575 55.2263 36.0806 55.1383 36.1246L52.4527 37.3937C52.2343 37.5183 51.9848 37.5916 51.7271 37.6066ZM55.4305 25.3502C55.3148 25.3468 55.2006 25.374 55.1018 25.4285C55.003 25.4829 54.924 25.5623 54.8745 25.6568L53.5269 28.1183C53.4164 28.3236 53.2523 28.5014 53.0487 28.6365C52.8451 28.7715 52.6082 28.8597 52.3584 28.8934L49.3524 29.2852C49.2391 29.2999 49.1325 29.3431 49.045 29.4098C48.9574 29.4764 48.8922 29.564 48.8569 29.6624C48.8216 29.7609 48.8175 29.8663 48.8451 29.9667C48.8727 30.0672 48.9309 30.1586 49.0131 30.2306L51.1899 32.147C51.3704 32.3077 51.505 32.5056 51.5822 32.7237C51.6593 32.9418 51.6767 33.1736 51.6328 33.3991L51.124 36.099C51.104 36.2008 51.116 36.3056 51.1586 36.4015C51.2011 36.4975 51.2725 36.5807 51.3647 36.6419C51.4568 36.703 51.5661 36.7397 51.6801 36.7476C51.7941 36.7555 51.9083 36.7344 52.0098 36.6867L54.7049 35.4092C54.9273 35.3039 55.1747 35.249 55.4257 35.249C55.6768 35.249 55.9242 35.3039 56.1466 35.4092L58.8417 36.6867C58.9412 36.7437 59.0567 36.7736 59.1745 36.7727C59.2923 36.7718 59.4073 36.7403 59.5057 36.6819C59.6042 36.6235 59.6819 36.5406 59.7296 36.4433C59.7773 36.346 59.7929 36.2383 59.7746 36.1331L59.2658 33.4331C59.2243 33.2077 59.2428 32.9765 59.3199 32.7588C59.3969 32.541 59.5302 32.343 59.7087 32.1811L61.8855 30.2647C61.9698 30.1934 62.0297 30.1018 62.0581 30.0006C62.0865 29.8994 62.0822 29.793 62.0457 29.694C62.0096 29.5956 61.9437 29.5082 61.8554 29.442C61.7671 29.3757 61.66 29.3332 61.5462 29.3193L58.5402 28.9275C58.2904 28.8938 58.0535 28.8056 57.8499 28.6705C57.6463 28.5355 57.4822 28.3577 57.3717 28.1524L56.0053 25.6568C55.9545 25.5595 55.8726 25.4783 55.7701 25.4236C55.6676 25.3689 55.5492 25.3434 55.4305 25.3502Z" fill="#EAD519"/>
<path d="M40.3991 2.78707L40.7287 9.67182C40.7414 10.0667 40.8515 10.4527 41.0494 10.7967C41.2474 11.1406 41.5273 11.4324 41.8653 11.6469L47.821 15.2845C48.2174 15.5282 48.5367 15.8757 48.7429 16.2879C48.949 16.7001 49.0339 17.1607 48.9878 17.6176C48.9417 18.0746 48.7666 18.5099 48.4821 18.8744C48.1976 19.239 47.8151 19.5183 47.3777 19.6809L40.8197 22.1134C40.4393 22.252 40.0995 22.4802 39.83 22.7779C39.5605 23.0755 39.3695 23.4336 39.2739 23.8207L37.5918 30.5157C37.4806 30.9629 37.2442 31.3707 36.9092 31.6928C36.5743 32.0149 36.1542 32.2385 35.6964 32.3384C35.2387 32.4382 34.7617 32.4103 34.3193 32.2578C33.8769 32.1053 33.4868 31.8342 33.1932 31.4754L28.806 26.097C28.555 25.7826 28.2283 25.5343 27.8553 25.3746C27.4823 25.2149 27.0748 25.1487 26.6693 25.182L19.6793 25.673C19.2139 25.7035 18.749 25.6062 18.3368 25.392C17.9245 25.1778 17.5812 24.8551 17.3452 24.4601C17.1092 24.065 16.9899 23.6133 17.0007 23.1555C17.0114 22.6977 17.1518 22.2519 17.4062 21.868L21.2592 16.1102C21.4767 15.7834 21.6109 15.4101 21.6504 15.0216C21.69 14.6332 21.6338 14.2411 21.4865 13.8785L18.8496 7.49592C18.6635 7.06905 18.6039 6.59924 18.6777 6.14058C18.7515 5.68192 18.9557 5.25304 19.2668 4.90329C19.578 4.55354 19.9834 4.29714 20.4363 4.16359C20.8893 4.03005 21.3715 4.02478 21.8274 4.1484L28.5901 5.96722C28.9812 6.0715 29.3922 6.08132 29.7881 5.99582C30.1839 5.91033 30.5528 5.73207 30.8632 5.47625L36.2279 1.01289C36.5856 0.703475 37.0255 0.500377 37.4964 0.427323C37.9673 0.35427 38.4496 0.414274 38.887 0.600328C39.3245 0.786383 39.6989 1.09081 39.9667 1.47803C40.2344 1.86525 40.3844 2.31928 40.3991 2.78707Z" fill="#EAD519"/>
<path d="M14.9683 35.7911L14.0238 39.1933C13.9736 39.3851 13.9725 39.5858 14.0206 39.7781C14.0687 39.9704 14.1647 40.1488 14.3002 40.2979L16.6844 42.971C16.8441 43.1499 16.9483 43.3681 16.9851 43.601C17.022 43.8338 16.99 44.0719 16.8928 44.2882C16.7957 44.5044 16.6372 44.6903 16.4354 44.8245C16.2337 44.9588 15.9967 45.036 15.7515 45.0476L12.0889 45.2354C11.8763 45.2492 11.6703 45.3115 11.488 45.4172C11.3056 45.5229 11.1523 45.6689 11.0408 45.8429L9.12883 48.8474C8.99501 49.0337 8.81172 49.1824 8.59794 49.278C8.38415 49.3737 8.14762 49.4128 7.91278 49.3914C7.67794 49.37 7.45332 49.2888 7.26213 49.1563C7.07095 49.0238 6.92015 48.8447 6.8253 48.6376L5.51227 45.3238C5.43326 45.1343 5.3086 44.9654 5.14844 44.831C4.98829 44.6966 4.79721 44.6005 4.59087 44.5506L1.02039 43.7331C0.779891 43.6804 0.559745 43.5638 0.38518 43.3966C0.210616 43.2294 0.0887072 43.0184 0.0334084 42.7878C-0.0218904 42.5572 -0.00833015 42.3164 0.0725293 42.0929C0.153389 41.8693 0.298276 41.6722 0.490592 41.524L3.34698 39.3148C3.51484 39.1825 3.64583 39.0123 3.72824 38.8195C3.81066 38.6268 3.84189 38.4174 3.81917 38.2102L3.53123 34.6976C3.52342 34.4687 3.58083 34.2421 3.69728 34.0422C3.81372 33.8423 3.9848 33.6766 4.19211 33.563C4.39941 33.4494 4.63512 33.3922 4.87382 33.3974C5.11253 33.4027 5.34519 33.4703 5.54682 33.593L8.63358 35.5039C8.81346 35.6136 9.01789 35.6808 9.23013 35.7C9.44236 35.7192 9.65634 35.6899 9.85445 35.6144L13.2406 34.2557C13.4694 34.1761 13.7166 34.1585 13.9551 34.2047C14.1936 34.251 14.4142 34.3594 14.5927 34.5181C14.7712 34.6767 14.9007 34.8794 14.9669 35.104C15.0332 35.3286 15.0337 35.5663 14.9683 35.7911Z" fill="#EAD519"/>
<path d="M49.7293 42.3896L48.6737 46.6423C48.6175 46.8821 48.6163 47.1329 48.6701 47.3734C48.7239 47.6138 48.8311 47.8367 48.9826 48.023L51.6473 51.3644C51.8258 51.5881 51.9422 51.8609 51.9834 52.1519C52.0246 52.443 51.9888 52.7406 51.8802 53.0109C51.7716 53.2813 51.5945 53.5136 51.369 53.6814C51.1435 53.8492 50.8787 53.9458 50.6046 53.9602L46.5111 54.195C46.2735 54.2122 46.0433 54.2901 45.8395 54.4222C45.6357 54.5543 45.4643 54.7368 45.3397 54.9544L43.2028 58.71C43.0532 58.9429 42.8484 59.1287 42.6095 59.2482C42.3705 59.3678 42.1062 59.4167 41.8437 59.39C41.5812 59.3632 41.3302 59.2618 41.1165 59.0961C40.9028 58.9305 40.7343 58.7066 40.6283 58.4477L39.1608 54.3054C39.0725 54.0686 38.9331 53.8575 38.7541 53.6895C38.5751 53.5215 38.3616 53.4014 38.131 53.3389L34.1404 52.3172C33.8716 52.2512 33.6256 52.1055 33.4305 51.8965C33.2354 51.6875 33.0991 51.4237 33.0373 51.1355C32.9755 50.8473 32.9907 50.5462 33.0811 50.2668C33.1714 49.9874 33.3334 49.7409 33.5483 49.5557L36.7407 46.7942C36.9283 46.6288 37.0747 46.4161 37.1669 46.1752C37.259 45.9342 37.2939 45.6725 37.2685 45.4134L36.9467 41.0227C36.9379 40.7366 37.0021 40.4534 37.1323 40.2035C37.2624 39.9536 37.4536 39.7465 37.6853 39.6045C37.917 39.4625 38.1804 39.3909 38.4472 39.3975C38.714 39.4041 38.974 39.4886 39.1994 39.6419L42.6493 42.0306C42.8503 42.1678 43.0788 42.2518 43.316 42.2758C43.5532 42.2998 43.7924 42.2631 44.0138 42.1687L47.7984 40.4704C48.054 40.3708 48.3303 40.3488 48.5969 40.4067C48.8635 40.4645 49.11 40.6 49.3095 40.7983C49.509 40.9966 49.6537 41.25 49.7278 41.5307C49.8018 41.8114 49.8023 42.1086 49.7293 42.3896Z" fill="#EAD519"/>
<path d="M41.4543 74.1894L40.7284 76.7385C40.6899 76.8862 40.6886 77.0403 40.7246 77.1885C40.7606 77.3368 40.8329 77.475 40.9358 77.5923L42.7634 79.5681C42.8838 79.7031 42.9619 79.8668 42.9892 80.0411C43.0165 80.2154 42.9918 80.3934 42.9179 80.5553C42.844 80.7172 42.7237 80.8566 42.5706 80.9579C42.4174 81.0593 42.2374 81.1186 42.0505 81.1293L39.2508 81.2757C39.0895 81.2832 38.9328 81.3284 38.7948 81.4072C38.6567 81.486 38.5417 81.5959 38.4601 81.727L36.9954 83.9711C36.8993 84.1224 36.7599 84.2451 36.5931 84.3254C36.4264 84.4056 36.239 84.44 36.0524 84.4248C35.8658 84.4095 35.6876 84.3451 35.538 84.239C35.3885 84.1329 35.2737 83.9894 35.2067 83.8248L34.1957 81.3854C34.1388 81.2414 34.0453 81.1128 33.9232 81.0107C33.8012 80.9086 33.6544 80.8363 33.4958 80.8L30.7738 80.1902C30.5913 80.1506 30.4244 80.0635 30.292 79.9388C30.1596 79.8141 30.0672 79.657 30.0253 79.4852C29.9834 79.3135 29.9937 79.1341 30.055 78.9676C30.1163 78.8011 30.2262 78.6542 30.372 78.5436L32.5366 76.8849C32.6643 76.7897 32.7653 76.6666 32.8308 76.5263C32.8964 76.386 32.9244 76.2327 32.9125 76.0799L32.6792 73.4454C32.6662 73.2694 32.7055 73.0934 32.7927 72.9372C32.8799 72.781 33.0116 72.6507 33.173 72.5609C33.3343 72.471 33.5191 72.4252 33.7066 72.4284C33.8941 72.4317 34.0769 72.484 34.2346 72.5794L36.5807 74.0064C36.7169 74.0915 36.8732 74.1438 37.036 74.1587C37.1987 74.1736 37.3628 74.1506 37.5139 74.0918L40.1062 73.0795C40.2784 73.012 40.4671 72.9912 40.6512 73.0195C40.8352 73.0478 41.0071 73.124 41.1474 73.2396C41.2878 73.3551 41.3909 73.5053 41.4451 73.6732C41.4993 73.8411 41.5025 74.0199 41.4543 74.1894Z" fill="#EAD519"/>
</svg>
